<?xml version="1.0" encoding="UTF-8"?>
<svg xmlns="http://www.w3.org/2000/svg" xmlns:xlink="http://www.w3.org/1999/xlink" viewBox="0 0 150 150" width="150px" height="150px">
<g id="surface8139523">
<path style=" stroke:none;fill-rule:nonzero;fill:rgb(37.254903%,57.647061%,25.490198%);fill-opacity:1;" d="M 75 6 C 36.929688 6 6 36.929688 6 75 C 6 113.070312 36.929688 144 75 144 C 113.070312 144 144 113.070312 144 75 C 144 36.929688 113.070312 6 75 6 Z M 75 12 C 109.828125 12 138 40.171875 138 75 C 138 109.828125 109.828125 138 75 138 C 40.171875 138 12 109.828125 12 75 C 12 40.171875 40.171875 12 75 12 Z M 72 39 L 72 72 L 39 72 L 39 78 L 72 78 L 72 111 L 78 111 L 78 78 L 111 78 L 111 72 L 78 72 L 78 39 Z M 72 39 "/>
</g>
</svg>
